<?xml version="1.0" encoding="UTF-8"?>
<svg width="700pt" height="700pt" version="1.1" viewBox="0 0 700 700" xmlns="http://www.w3.org/2000/svg" xmlns:xlink="http://www.w3.org/1999/xlink">
 <defs>
  <symbol id="j" overflow="visible">
   <path d="m15.016-0.89062c-0.78125 0.39844-1.5938 0.69531-2.4375 0.89062-0.83594 0.20703-1.7031 0.3125-2.6094 0.3125-2.7188 0-4.875-0.75781-6.4688-2.2812-1.5938-1.5195-2.3906-3.582-2.3906-6.1875 0-2.6016 0.79688-4.6641 2.3906-6.1875 1.5938-1.5195 3.75-2.2812 6.4688-2.2812 0.90625 0 1.7734 0.10547 2.6094 0.3125 0.84375 0.19922 1.6562 0.49609 2.4375 0.89062v3.3906c-0.78125-0.53125-1.5547-0.92188-2.3125-1.1719-0.76172-0.25-1.5586-0.375-2.3906-0.375-1.5117 0-2.6992 0.48438-3.5625 1.4531-0.85547 0.96094-1.2812 2.2812-1.2812 3.9688s0.42578 3.0156 1.2812 3.9844c0.86328 0.96094 2.0508 1.4375 3.5625 1.4375 0.83203 0 1.6289-0.125 2.3906-0.375 0.75781-0.25 1.5312-0.64062 2.3125-1.1719z"/>
  </symbol>
  <symbol id="b" overflow="visible">
   <path d="m10.984-8.9219c-0.34375-0.15625-0.6875-0.26953-1.0312-0.34375-0.33594-0.082031-0.67188-0.125-1.0156-0.125-1.0117 0-1.7891 0.32422-2.3281 0.96875-0.54297 0.64844-0.8125 1.5742-0.8125 2.7812v5.6406h-3.9219v-12.25h3.9219v2.0156c0.5-0.80078 1.0781-1.3828 1.7344-1.75 0.65625-0.375 1.4375-0.5625 2.3438-0.5625 0.13281 0 0.27344 0.007813 0.42188 0.015625 0.15625 0.011719 0.37891 0.03125 0.67188 0.0625z"/>
  </symbol>
  <symbol id="a" overflow="visible">
   <path d="m14.109-6.1562v1.1094h-9.1562c0.09375 0.91797 0.42578 1.6094 1 2.0781 0.57031 0.46094 1.3672 0.6875 2.3906 0.6875 0.82031 0 1.6641-0.11719 2.5312-0.35938 0.86328-0.25 1.75-0.625 2.6562-1.125v3.0156c-0.92969 0.35547-1.8555 0.62109-2.7812 0.79688-0.92969 0.17578-1.8555 0.26562-2.7812 0.26562-2.2109 0-3.9297-0.5625-5.1562-1.6875-1.2305-1.125-1.8438-2.7031-1.8438-4.7344 0-2 0.59766-3.5703 1.7969-4.7188 1.207-1.1445 2.8672-1.7188 4.9844-1.7188 1.9258 0 3.4688 0.58594 4.625 1.75 1.1562 1.1562 1.7344 2.7031 1.7344 4.6406zm-4.0156-1.3125c0-0.73828-0.21875-1.332-0.65625-1.7812-0.4375-0.45703-1.0078-0.6875-1.7031-0.6875-0.76172 0-1.3828 0.21484-1.8594 0.64062-0.46875 0.41797-0.76172 1.0273-0.875 1.8281z"/>
  </symbol>
  <symbol id="g" overflow="visible">
   <path d="m7.375-5.5156c-0.8125 0-1.4297 0.14062-1.8438 0.42188-0.41797 0.27344-0.625 0.67969-0.625 1.2188 0 0.5 0.16406 0.89062 0.5 1.1719 0.33203 0.28125 0.79688 0.42188 1.3906 0.42188 0.73828 0 1.3594-0.26562 1.8594-0.79688s0.75-1.1914 0.75-1.9844v-0.45312zm5.9844-1.4688v6.9844h-3.9531v-1.8125c-0.52344 0.74219-1.1094 1.2812-1.7656 1.625-0.65625 0.33203-1.4609 0.5-2.4062 0.5-1.2617 0-2.2891-0.36719-3.0781-1.1094-0.79297-0.73828-1.1875-1.6953-1.1875-2.875 0-1.4375 0.48828-2.4883 1.4688-3.1562 0.98828-0.67578 2.5391-1.0156 4.6562-1.0156h2.3125v-0.3125c0-0.61328-0.24609-1.0625-0.73438-1.3438-0.49219-0.28906-1.25-0.4375-2.2812-0.4375-0.84375 0-1.625 0.085938-2.3438 0.25-0.71875 0.16797-1.3906 0.41797-2.0156 0.75v-2.9844c0.84375-0.20703 1.6875-0.36328 2.5312-0.46875 0.84375-0.10156 1.6875-0.15625 2.5312-0.15625 2.2188 0 3.8164 0.4375 4.7969 1.3125 0.97656 0.86719 1.4688 2.2812 1.4688 4.25z"/>
  </symbol>
  <symbol id="d" overflow="visible">
   <path d="m6.1562-15.734v3.4844h4.0469v2.7969h-4.0469v5.2031c0 0.5625 0.11328 0.94922 0.34375 1.1562 0.22656 0.19922 0.67578 0.29688 1.3438 0.29688h2.0156v2.7969h-3.3594c-1.5547 0-2.6523-0.32031-3.2969-0.96875-0.63672-0.64453-0.95312-1.7383-0.95312-3.2812v-5.2031h-1.9531v-2.7969h1.9531v-3.4844z"/>
  </symbol>
  <symbol id="f" overflow="visible">
   <path d="m10.219-10.453v-6.5781h3.9375v17.031h-3.9375v-1.7656c-0.54297 0.71875-1.1367 1.2461-1.7812 1.5781-0.64844 0.33203-1.3984 0.5-2.25 0.5-1.5117 0-2.7578-0.59766-3.7344-1.7969-0.96875-1.1953-1.4531-2.7383-1.4531-4.625 0-1.8945 0.48438-3.4414 1.4531-4.6406 0.97656-1.1953 2.2227-1.7969 3.7344-1.7969 0.84375 0 1.5859 0.17188 2.2344 0.51562 0.65625 0.33594 1.2539 0.85938 1.7969 1.5781zm-2.5781 7.9219c0.83203 0 1.4688-0.30078 1.9062-0.90625 0.44531-0.61328 0.67188-1.5039 0.67188-2.6719 0-1.1641-0.22656-2.0547-0.67188-2.6719-0.4375-0.61328-1.0742-0.92188-1.9062-0.92188-0.83594 0-1.4766 0.30859-1.9219 0.92188-0.4375 0.61719-0.65625 1.5078-0.65625 2.6719 0 1.168 0.21875 2.0586 0.65625 2.6719 0.44531 0.60547 1.0859 0.90625 1.9219 0.90625z"/>
  </symbol>
  <symbol id="l" overflow="visible">
   <path d="m8.4062-2.5312c0.83203 0 1.4688-0.30078 1.9062-0.90625 0.44531-0.61328 0.67188-1.5039 0.67188-2.6719 0-1.1641-0.22656-2.0547-0.67188-2.6719-0.4375-0.61328-1.0742-0.92188-1.9062-0.92188-0.84375 0-1.4922 0.30859-1.9375 0.92188-0.44922 0.61719-0.67188 1.5078-0.67188 2.6719 0 1.1562 0.22266 2.043 0.67188 2.6562 0.44531 0.61719 1.0938 0.92188 1.9375 0.92188zm-2.6094-7.9219c0.53906-0.71875 1.1406-1.2422 1.7969-1.5781 0.65625-0.34375 1.4102-0.51562 2.2656-0.51562 1.5078 0 2.75 0.60156 3.7188 1.7969 0.96875 1.1992 1.4531 2.7461 1.4531 4.6406 0 1.8867-0.48438 3.4297-1.4531 4.625-0.96875 1.1992-2.2109 1.7969-3.7188 1.7969-0.85547 0-1.6094-0.16797-2.2656-0.5-0.65625-0.34375-1.2578-0.86719-1.7969-1.5781v1.7656h-3.9219v-17.031h3.9219z"/>
  </symbol>
  <symbol id="k" overflow="visible">
   <path d="m0.28125-12.25h3.9062l3.2969 8.3125 2.7969-8.3125h3.9219l-5.1562 13.406c-0.52344 1.3633-1.125 2.3164-1.8125 2.8594-0.6875 0.53906-1.6016 0.8125-2.7344 0.8125h-2.25v-2.5625h1.2188c0.66406 0 1.1484-0.10938 1.4531-0.32812 0.30078-0.21094 0.53516-0.58594 0.70312-1.125l0.10938-0.34375z"/>
  </symbol>
  <symbol id="e" overflow="visible">
   <path d="m1.875-17.031h3.9219v17.031h-3.9219z"/>
  </symbol>
  <symbol id="u" overflow="visible">
   <path d="m2.0625-16.328h4.2031v6.2188h6.2188v-6.2188h4.2031v16.328h-4.2031v-6.9219h-6.2188v6.9219h-4.2031z"/>
  </symbol>
  <symbol id="c" overflow="visible">
   <path d="m7.7188-9.75c-0.875 0-1.543 0.3125-2 0.9375-0.44922 0.625-0.67188 1.5273-0.67188 2.7031 0 1.168 0.22266 2.0625 0.67188 2.6875 0.45703 0.625 1.125 0.9375 2 0.9375 0.85156 0 1.5039-0.3125 1.9531-0.9375 0.44531-0.625 0.67188-1.5195 0.67188-2.6875 0-1.1758-0.22656-2.0781-0.67188-2.7031-0.44922-0.625-1.1016-0.9375-1.9531-0.9375zm0-2.7969c2.1016 0 3.75 0.57031 4.9375 1.7031 1.1875 1.1367 1.7812 2.7148 1.7812 4.7344 0 2.0117-0.59375 3.5859-1.7812 4.7188-1.1875 1.1367-2.8359 1.7031-4.9375 1.7031-2.1172 0-3.7734-0.56641-4.9688-1.7031-1.1875-1.1328-1.7812-2.707-1.7812-4.7188 0-2.0195 0.59375-3.5977 1.7812-4.7344 1.1953-1.1328 2.8516-1.7031 4.9688-1.7031z"/>
  </symbol>
  <symbol id="i" overflow="visible">
   <path d="m14.203-7.4688v7.4688h-3.9375v-5.7188c0-1.0508-0.027344-1.7734-0.078125-2.1719-0.042969-0.40625-0.125-0.70312-0.25-0.89062-0.14844-0.25781-0.35547-0.45703-0.625-0.59375-0.26172-0.14453-0.55859-0.21875-0.89062-0.21875-0.8125 0-1.4531 0.32031-1.9219 0.95312-0.46875 0.625-0.70312 1.4961-0.70312 2.6094v6.0312h-3.9219v-12.25h3.9219v1.7969c0.59375-0.71875 1.2188-1.2422 1.875-1.5781 0.66406-0.34375 1.3984-0.51562 2.2031-0.51562 1.4141 0 2.4883 0.4375 3.2188 1.3125 0.73828 0.86719 1.1094 2.1211 1.1094 3.7656z"/>
  </symbol>
  <symbol id="h" overflow="visible">
   <path d="m11.453-11.875v2.9844c-0.83594-0.35156-1.6406-0.61328-2.4219-0.78125-0.78125-0.17578-1.5234-0.26562-2.2188-0.26562-0.74219 0-1.293 0.09375-1.6562 0.28125-0.36719 0.17969-0.54688 0.46094-0.54688 0.84375 0 0.3125 0.13281 0.55859 0.40625 0.73438 0.28125 0.16797 0.77344 0.28906 1.4844 0.35938l0.6875 0.10938c2.0078 0.25 3.3594 0.66797 4.0469 1.25 0.69531 0.58594 1.0469 1.5 1.0469 2.75 0 1.3047-0.48438 2.2812-1.4531 2.9375-0.96094 0.65625-2.3984 0.98438-4.3125 0.98438-0.80469 0-1.6367-0.0625-2.5-0.1875-0.86719-0.125-1.7578-0.31641-2.6719-0.57812v-2.9688c0.78125 0.375 1.582 0.66406 2.4062 0.85938 0.82031 0.1875 1.6562 0.28125 2.5 0.28125 0.75781 0 1.332-0.10156 1.7188-0.3125 0.39453-0.21875 0.59375-0.53516 0.59375-0.95312 0-0.34375-0.13672-0.59766-0.40625-0.76562-0.27344-0.17578-0.80469-0.3125-1.5938-0.40625l-0.6875-0.09375c-1.7422-0.21875-2.9648-0.625-3.6719-1.2188-0.69922-0.59375-1.0469-1.4883-1.0469-2.6875 0-1.3008 0.44141-2.2656 1.3281-2.8906 0.89453-0.625 2.2656-0.9375 4.1094-0.9375 0.71875 0 1.4727 0.058594 2.2656 0.17188 0.78906 0.10547 1.6562 0.27344 2.5938 0.5z"/>
  </symbol>
  <symbol id="t" overflow="visible">
   <path d="m9.9375-17.031v2.5781h-2.1562c-0.55469 0-0.9375 0.10547-1.1562 0.3125-0.21875 0.19922-0.32812 0.54297-0.32812 1.0312v0.85938h3.3438v2.7969h-3.3438v9.4531h-3.9219v-9.4531h-1.9531v-2.7969h1.9531v-0.85938c0-1.332 0.36719-2.3164 1.1094-2.9531 0.75-0.64453 1.9062-0.96875 3.4688-0.96875z"/>
  </symbol>
  <symbol id="s" overflow="visible">
   <path d="m13.234-10.219c0.5-0.75781 1.0859-1.3359 1.7656-1.7344 0.6875-0.39453 1.4375-0.59375 2.25-0.59375 1.4062 0 2.4766 0.4375 3.2188 1.3125 0.73828 0.86719 1.1094 2.1211 1.1094 3.7656v7.4688h-3.9375v-6.3906-0.29688c0.007813-0.10156 0.015625-0.25 0.015625-0.4375 0-0.86328-0.13281-1.4883-0.39062-1.875-0.25-0.39453-0.66406-0.59375-1.2344-0.59375-0.74219 0-1.3125 0.30859-1.7188 0.92188-0.40625 0.61719-0.61719 1.5-0.625 2.6562v6.0156h-3.9375v-6.3906c0-1.3516-0.12109-2.2227-0.35938-2.6094-0.23047-0.39453-0.64062-0.59375-1.2344-0.59375-0.75 0-1.3359 0.30859-1.75 0.92188-0.40625 0.61719-0.60938 1.4961-0.60938 2.6406v6.0312h-3.9375v-12.25h3.9375v1.7969c0.47656-0.69531 1.0312-1.2188 1.6562-1.5625 0.625-0.35156 1.3125-0.53125 2.0625-0.53125 0.84375 0 1.5859 0.20312 2.2344 0.60938 0.65625 0.40625 1.1484 0.98047 1.4844 1.7188z"/>
  </symbol>
  <symbol id="r" overflow="visible">
   <path d="m14.203-7.4688v7.4688h-3.9375v-5.6875c0-1.0703-0.027344-1.8047-0.078125-2.2031-0.042969-0.40625-0.125-0.70312-0.25-0.89062-0.14844-0.25781-0.35547-0.45703-0.625-0.59375-0.26172-0.14453-0.55859-0.21875-0.89062-0.21875-0.8125 0-1.4531 0.32031-1.9219 0.95312-0.46875 0.625-0.70312 1.4961-0.70312 2.6094v6.0312h-3.9219v-17.031h3.9219v6.5781c0.59375-0.71875 1.2188-1.2422 1.875-1.5781 0.66406-0.34375 1.3984-0.51562 2.2031-0.51562 1.4141 0 2.4883 0.4375 3.2188 1.3125 0.73828 0.86719 1.1094 2.1211 1.1094 3.7656z"/>
  </symbol>
  <symbol id="q" overflow="visible">
   <path d="m2.0625-16.328h4.7031l5.9375 11.203v-11.203h3.9844v16.328h-4.7031l-5.9375-11.203v11.203h-3.9844z"/>
  </symbol>
  <symbol id="p" overflow="visible">
   <path d="m1.75-4.7656v-7.4844h3.9375v1.2188c0 0.66797-0.007812 1.5-0.015625 2.5v2.0156c0 0.98047 0.023437 1.6875 0.078125 2.125 0.050781 0.4375 0.13281 0.75 0.25 0.9375 0.16406 0.26172 0.37891 0.46484 0.64062 0.60938 0.25781 0.13672 0.55469 0.20312 0.89062 0.20312 0.8125 0 1.4531-0.3125 1.9219-0.9375 0.46875-0.63281 0.70312-1.5078 0.70312-2.625v-6.0469h3.9062v12.25h-3.9062v-1.7656c-0.59375 0.71094-1.2266 1.2344-1.8906 1.5781-0.65625 0.33203-1.3828 0.5-2.1719 0.5-1.418 0-2.4961-0.42969-3.2344-1.2969-0.74219-0.86328-1.1094-2.125-1.1094-3.7812z"/>
  </symbol>
  <symbol id="o" overflow="visible">
   <path d="m2.0625-16.328h6.9844c2.082 0 3.6758 0.46484 4.7812 1.3906 1.1133 0.91797 1.6719 2.2305 1.6719 3.9375 0 1.7109-0.55859 3.0273-1.6719 3.9531-1.1055 0.91797-2.6992 1.375-4.7812 1.375h-2.7812v5.6719h-4.2031zm4.2031 3.0469v4.5625h2.3281c0.82031 0 1.4531-0.19531 1.8906-0.59375 0.44531-0.39453 0.67188-0.95703 0.67188-1.6875 0-0.72656-0.22656-1.2891-0.67188-1.6875-0.4375-0.39453-1.0703-0.59375-1.8906-0.59375z"/>
  </symbol>
  <symbol id="n" overflow="visible">
   <path d="m1.875-12.25h3.9219v12.031c0 1.6445-0.39844 2.8945-1.1875 3.75-0.78125 0.86328-1.9219 1.2969-3.4219 1.2969h-1.9375v-2.5625h0.6875c0.73828 0 1.2422-0.16797 1.5156-0.5 0.28125-0.33594 0.42188-0.99609 0.42188-1.9844zm0-4.7812h3.9219v3.2031h-3.9219z"/>
  </symbol>
  <symbol id="m" overflow="visible">
   <path d="m11.781-11.875v3.2031c-0.53125-0.36328-1.0703-0.63281-1.6094-0.8125-0.53125-0.17578-1.0859-0.26562-1.6562-0.26562-1.0938 0-1.9492 0.32422-2.5625 0.96875-0.60547 0.63672-0.90625 1.5273-0.90625 2.6719 0 1.1484 0.30078 2.0391 0.90625 2.6719 0.61328 0.63672 1.4688 0.95312 2.5625 0.95312 0.61328 0 1.1914-0.085937 1.7344-0.26562 0.55078-0.1875 1.0625-0.45703 1.5312-0.8125v3.2031c-0.61719 0.23047-1.2422 0.39453-1.875 0.5-0.625 0.11328-1.2578 0.17188-1.8906 0.17188-2.2109 0-3.9375-0.5625-5.1875-1.6875-1.2422-1.1328-1.8594-2.7109-1.8594-4.7344 0-2.0195 0.61719-3.5977 1.8594-4.7344 1.25-1.1328 2.9766-1.7031 5.1875-1.7031 0.64453 0 1.2812 0.058594 1.9062 0.17188 0.625 0.11719 1.2422 0.28125 1.8594 0.5z"/>
  </symbol>
 </defs>
 <g>
  <path d="m454.83 298.82c-0.89453-5.8242-3.5859-11.199-8.0625-15.23-3.1367-3.1367-6.2734-4.9297-10.305-6.7188l6.7188-6.7188c11.199-11.199 11.199-29.566 0-40.77-3.1367-3.1367-6.7188-5.375-11.199-6.7188 4.0312-6.7188 4.9297-14.785 2.6875-22.398v-0.89844c-0.89453-1.793-3.1367-8.0625-8.9609-12.992-4.9297-4.0312-11.199-6.2734-17.922-6.2734-5.375 0-10.305 1.3438-14.785 4.0312-1.3438-4.0312-3.5859-8.0625-6.7188-11.199-5.375-5.375-12.543-8.5117-20.16-8.5117s-14.785 3.1367-20.16 8.5117l-59.133 57.789c0-0.44922 0.44922-0.89453 0.44922-1.3438 4.4805-10.754 2.2383-22.848-6.2734-31.359-2.6875-2.6875-5.8242-4.9297-9.4062-6.2734-3.5859-1.3438-7.168-2.2383-11.199-2.2383-3.5859 0-7.6172 0.89453-10.754 2.2383-7.168 3.1367-12.543 8.5117-15.68 15.68l-41.664 100.35v0.89844c-12.543 36.734-3.5859 76.16 23.742 103.49 18.816 18.816 44.352 29.566 71.23 29.566s51.969-10.305 71.23-29.566l88.707-88.707c5.8242-6.2695 8.9609-15.676 7.6172-24.637zm-20.16 12.992-81.984 82.43-6.2734 6.2734c-16.129 16.129-37.633 24.641-59.137 24.641s-43.008-8.0625-59.137-24.641c-22.848-22.848-30.465-56-20.16-86.465l41.664-100.35c1.3438-3.1367 3.5859-5.375 6.2734-6.2734 1.3438-0.44922 3.1367-0.89453 4.4805-0.89453s3.1367 0.44922 4.4805 0.89453c1.3438 0.44922 2.6875 1.3438 4.0312 2.6875 3.5859 3.5859 4.4805 8.5117 2.6875 12.992 0 0-21.504 53.312-23.742 58.688-1.3438 3.5859 0 6.7188 2.6875 6.7188 1.3438 0 2.6875-0.89453 4.4805-2.6875l102.14-102.14c2.2383-2.2383 5.375-3.5859 8.5117-3.5859 3.1367 0 6.2734 1.3438 8.5117 3.5859 4.4805 4.4805 4.4805 12.098 0 17.023l-73.023 73.027-2.6875 2.6875c-3.1367 3.1367-3.1367 8.5117 0 11.648 1.793 1.793 3.5859 2.2383 5.8242 2.2383 1.3438 0 3.1367-0.44922 4.4805-1.3438 0.44922-0.44922 0.89453-0.89453 1.3438-1.3438l89.152-88.254c2.2383-2.2383 5.375-3.5859 8.5117-3.5859 2.6875 0 5.375 0.89453 7.6172 2.6875 2.2383 1.793 3.1367 4.0312 4.0312 5.8242 1.3438 4.0312 0 8.5117-3.1367 11.648l-89.152 89.156c-1.793 1.793-2.6875 4.4805-2.2383 6.7188 0 1.793 0.89453 3.5859 2.2383 4.9297 1.793 1.793 3.5859 2.2383 5.8242 2.2383h0.89453c1.793 0 3.5859-0.89453 5.375-2.2383l75.266-75.266c2.2383-2.2383 5.375-3.5859 8.5117-3.5859 3.1367 0 6.2734 1.3438 8.5117 3.5859 4.4805 4.4805 4.4805 12.098 0 17.023l-71.68 71.23-14.336 14.336c-3.1367 3.1367-3.1367 8.5117 0 11.648 1.793 1.793 3.5859 2.2383 5.8242 2.2383s4.4805-0.89453 5.8242-2.2383l60.93-60.93c2.2383-2.2383 5.375-3.5859 8.5117-3.5859s6.2734 1.3438 8.5117 3.5859c1.793 1.793 2.6875 4.0312 3.1367 6.2734 0.44531 4.0352-0.44922 8.0664-3.5859 10.754z"/>
  <path d="m517.11 267.46c-2.6875 0-4.4805 1.793-4.4805 4.4805 0 38.078-14.785 73.922-41.664 100.8-1.793 1.793-1.793 4.4805 0 6.2734 0.89453 0.89453 2.2383 1.3438 3.1367 1.3438 0.89453 0 2.2383-0.44922 3.1367-1.3438 28.672-28.672 44.352-66.754 44.352-107.07 0-2.6953-2.2422-4.4844-4.4805-4.4844z"/>
  <path d="m491.57 267.46c-2.6875 0-4.4805 1.793-4.4805 4.4805 0 31.809-12.098 61.824-34.047 84.672-1.793 1.793-1.793 4.4805 0 6.2734 0.89453 0.89453 1.793 1.3438 3.1367 1.3438s2.2383-0.44922 3.1367-1.3438c23.742-24.641 36.734-56.895 36.734-90.945 0-2.6914-2.2383-4.4805-4.4805-4.4805z"/>
  <path d="m266.67 162.18c1.3438 0 2.2383-0.44922 3.1367-1.3438 26.879-26.879 62.719-41.664 100.8-41.664 2.6875 0 4.4805-1.793 4.4805-4.4805s-2.2383-4.4805-4.4805-4.4805c-40.32 0-78.398 15.68-107.07 44.352-1.793 1.793-1.793 4.4805 0 6.2734 0.89453 0.89453 2.2383 1.3438 3.1328 1.3438z"/>
  <path d="m370.61 134.4c-33.602 0.89453-65.406 14.785-89.152 38.527-1.793 1.793-1.793 4.4805 0 6.2734 0.89453 0.89453 2.2383 1.3438 3.1367 1.3438 0.89453 0 2.2383-0.44922 3.1367-1.3438 21.953-21.953 51.52-34.945 82.879-35.84 2.6875 0 4.4805-2.2383 4.4805-4.4805 0.44531-2.6875-1.793-4.9258-4.4805-4.4805z"/>
  <use x="126" y="627.199219" xlink:href="#j"/>
  <use x="142.4375" y="627.199219" xlink:href="#b"/>
  <use x="153.484375" y="627.199219" xlink:href="#a"/>
  <use x="168.679688" y="627.199219" xlink:href="#g"/>
  <use x="183.792969" y="627.199219" xlink:href="#d"/>
  <use x="194.5" y="627.199219" xlink:href="#a"/>
  <use x="209.695312" y="627.199219" xlink:href="#f"/>
  <use x="233.527344" y="627.199219" xlink:href="#l"/>
  <use x="249.5625" y="627.199219" xlink:href="#k"/>
  <use x="271.960938" y="627.199219" xlink:href="#j"/>
  <use x="288.398438" y="627.199219" xlink:href="#g"/>
  <use x="303.515625" y="627.199219" xlink:href="#b"/>
  <use x="314.5625" y="627.199219" xlink:href="#e"/>
  <use x="330.039062" y="627.199219" xlink:href="#u"/>
  <use x="348.785156" y="627.199219" xlink:href="#c"/>
  <use x="364.175781" y="627.199219" xlink:href="#e"/>
  <use x="371.851562" y="627.199219" xlink:href="#f"/>
  <use x="387.886719" y="627.199219" xlink:href="#a"/>
  <use x="403.078125" y="627.199219" xlink:href="#b"/>
  <use x="414.125" y="627.199219" xlink:href="#i"/>
  <use x="430.074219" y="627.199219" xlink:href="#a"/>
  <use x="445.265625" y="627.199219" xlink:href="#h"/>
  <use x="458.597656" y="627.199219" xlink:href="#h"/>
  <use x="126" y="649.601562" xlink:href="#t"/>
  <use x="135.746094" y="649.601562" xlink:href="#b"/>
  <use x="146.792969" y="649.601562" xlink:href="#c"/>
  <use x="162.179688" y="649.601562" xlink:href="#s"/>
  <use x="193.320312" y="649.601562" xlink:href="#d"/>
  <use x="204.027344" y="649.601562" xlink:href="#r"/>
  <use x="219.976562" y="649.601562" xlink:href="#a"/>
  <use x="242.964844" y="649.601562" xlink:href="#q"/>
  <use x="261.710938" y="649.601562" xlink:href="#c"/>
  <use x="277.101562" y="649.601562" xlink:href="#p"/>
  <use x="293.046875" y="649.601562" xlink:href="#i"/>
  <use x="316.792969" y="649.601562" xlink:href="#o"/>
  <use x="333.210938" y="649.601562" xlink:href="#b"/>
  <use x="344.257812" y="649.601562" xlink:href="#c"/>
  <use x="359.648438" y="649.601562" xlink:href="#n"/>
  <use x="367.324219" y="649.601562" xlink:href="#a"/>
  <use x="382.515625" y="649.601562" xlink:href="#m"/>
  <use x="395.796875" y="649.601562" xlink:href="#d"/>
 </g>
</svg>
